# ProBuilder 5.0.3
# https://unity3d.com/unity/features/worldbuilding/probuilder
# 05.11.2021 2:12:50

mtllib ./Pipe.mtl
o Pipe

g Pipe
v -2.469221 -0.5 0.3910862
v -2.5 -0.5 0
v -2.469221 0.5 0.3910862
v -2.5 0.5 0
v -2.25 -0.5 0
v -2.222299 -0.5 0.3519776
v -2.25 0.5 0
v -2.222299 0.5 0.3519776
v -2.377641 -0.5 0.7725425
v -2.377641 0.5 0.7725425
v -2.139877 -0.5 0.6952882
v -2.139877 0.5 0.6952882
v -2.227516 -0.5 1.134976
v -2.227516 0.5 1.134976
v -2.004765 -0.5 1.021479
v -2.004765 0.5 1.021479
v -2.022542 -0.5 1.469463
v -2.022542 0.5 1.469463
v -1.820288 -0.5 1.322517
v -1.820288 0.5 1.322517
v -1.767767 -0.5 1.767767
v -1.767767 0.5 1.767767
v -1.59099 -0.5 1.59099
v -1.59099 0.5 1.59099
v -1.469463 -0.5 2.022542
v -1.469463 0.5 2.022542
v -1.322517 -0.5 1.820288
v -1.322517 0.5 1.820288
v -1.134976 -0.5 2.227516
v -1.134976 0.5 2.227516
v -1.021479 -0.5 2.004765
v -1.021479 0.5 2.004765
v -0.7725424 -0.5 2.377641
v -0.7725424 0.5 2.377641
v -0.6952882 -0.5 2.139877
v -0.6952882 0.5 2.139877
v -0.3910862 -0.5 2.469221
v -0.3910862 0.5 2.469221
v -0.3519776 -0.5 2.222299
v -0.3519776 0.5 2.222299
v 1.092785E-07 -0.5 2.5
v 1.092785E-07 0.5 2.5
v 9.835063E-08 -0.5 2.25
v 9.835063E-08 0.5 2.25
v 0.3910861 -0.5 2.469221
v 0.3910861 0.5 2.469221
v 0.3519775 -0.5 2.222299
v 0.3519775 0.5 2.222299
v 0.7725424 -0.5 2.377641
v 0.7725424 0.5 2.377641
v 0.6952881 -0.5 2.139877
v 0.6952881 0.5 2.139877
v 1.134976 -0.5 2.227516
v 1.134976 0.5 2.227516
v 1.021478 -0.5 2.004765
v 1.021478 0.5 2.004765
v 1.469463 -0.5 2.022542
v 1.469463 0.5 2.022542
v 1.322517 -0.5 1.820288
v 1.322517 0.5 1.820288
v 1.767767 -0.5 1.767767
v 1.767767 0.5 1.767767
v 1.59099 -0.5 1.59099
v 1.59099 0.5 1.59099
v 2.022543 -0.5 1.469463
v 2.022543 0.5 1.469463
v 1.820288 -0.5 1.322517
v 1.820288 0.5 1.322517
v 2.227516 -0.5 1.134976
v 2.227516 0.5 1.134976
v 2.004765 -0.5 1.021479
v 2.004765 0.5 1.021479
v 2.377641 -0.5 0.7725426
v 2.377641 0.5 0.7725426
v 2.139877 -0.5 0.6952884
v 2.139877 0.5 0.6952884
v 2.469221 -0.5 0.3910861
v 2.469221 0.5 0.3910861
v 2.222299 -0.5 0.3519775
v 2.222299 0.5 0.3519775
v 2.5 -0.5 -2.185569E-07
v 2.5 0.5 -2.185569E-07
v 2.25 -0.5 -1.967013E-07
v 2.25 0.5 -1.967013E-07
v 2.469221 -0.5 -0.3910859
v 2.469221 0.5 -0.3910859
v 2.222299 -0.5 -0.3519773
v 2.222299 0.5 -0.3519773
v 2.377641 -0.5 -0.7725424
v 2.377641 0.5 -0.7725424
v 2.139877 -0.5 -0.6952882
v 2.139877 0.5 -0.6952882
v 2.227516 -0.5 -1.134976
v 2.227516 0.5 -1.134976
v 2.004765 -0.5 -1.021479
v 2.004765 0.5 -1.021479
v 2.022543 -0.5 -1.469463
v 2.022543 0.5 -1.469463
v 1.820288 -0.5 -1.322517
v 1.820288 0.5 -1.322517
v 1.767767 -0.5 -1.767767
v 1.767767 0.5 -1.767767
v 1.59099 -0.5 -1.59099
v 1.59099 0.5 -1.59099
v 1.469464 -0.5 -2.022542
v 1.469464 0.5 -2.022542
v 1.322517 -0.5 -1.820288
v 1.322517 0.5 -1.820288
v 1.134977 -0.5 -2.227516
v 1.134977 0.5 -2.227516
v 1.021479 -0.5 -2.004765
v 1.021479 0.5 -2.004765
v 0.7725427 -0.5 -2.377641
v 0.7725427 0.5 -2.377641
v 0.6952884 -0.5 -2.139877
v 0.6952884 0.5 -2.139877
v 0.3910863 -0.5 -2.469221
v 0.3910863 0.5 -2.469221
v 0.3519777 -0.5 -2.222299
v 0.3519777 0.5 -2.222299
v -2.98122E-08 -0.5 -2.5
v -2.98122E-08 0.5 -2.5
v -2.683098E-08 -0.5 -2.25
v -2.683098E-08 0.5 -2.25
v -0.3910863 -0.5 -2.469221
v -0.3910863 0.5 -2.469221
v -0.3519777 -0.5 -2.222299
v -0.3519777 0.5 -2.222299
v -0.7725428 -0.5 -2.377641
v -0.7725428 0.5 -2.377641
v -0.6952885 -0.5 -2.139877
v -0.6952885 0.5 -2.139877
v -1.134976 -0.5 -2.227517
v -1.134976 0.5 -2.227517
v -1.021478 -0.5 -2.004765
v -1.021478 0.5 -2.004765
v -1.469463 -0.5 -2.022543
v -1.469463 0.5 -2.022543
v -1.322516 -0.5 -1.820288
v -1.322516 0.5 -1.820288
v -1.767767 -0.5 -1.767767
v -1.767767 0.5 -1.767767
v -1.59099 -0.5 -1.59099
v -1.59099 0.5 -1.59099
v -2.022542 -0.5 -1.469463
v -2.022542 0.5 -1.469463
v -1.820288 -0.5 -1.322517
v -1.820288 0.5 -1.322517
v -2.227516 -0.5 -1.134976
v -2.227516 0.5 -1.134976
v -2.004765 -0.5 -1.021479
v -2.004765 0.5 -1.021479
v -2.377641 -0.5 -0.7725424
v -2.377641 0.5 -0.7725424
v -2.139877 -0.5 -0.6952881
v -2.139877 0.5 -0.6952881
v -2.469221 -0.5 -0.3910859
v -2.469221 0.5 -0.3910859
v -2.222299 -0.5 -0.3519773
v -2.222299 0.5 -0.3519773

vt 0.1961479 -0.5
vt -0.1961476 -0.5
vt 0.1961479 0.5
vt -0.1961476 0.5
vt 0.1765324 -0.5
vt -0.1765336 -0.5
vt 0.1765324 0.5
vt -0.1765336 0.5
vt -2.5 0
vt -2.469221 0.3910862
vt -2.25 0
vt -2.222299 0.3519776
vt 2.469221 0.3910862
vt 2.5 0
vt 2.222299 0.3519776
vt 2.25 0
vt -2.377641 0.7725425
vt -2.139877 0.6952882
vt 2.377641 0.7725425
vt 2.139877 0.6952882
vt -2.227516 1.134976
vt -2.004765 1.021479
vt 2.227516 1.134976
vt 2.004765 1.021479
vt -2.022542 1.469463
vt -1.820288 1.322517
vt 2.022542 1.469463
vt 1.820288 1.322517
vt -1.767767 1.767767
vt -1.59099 1.59099
vt 1.767767 1.767767
vt 1.59099 1.59099
vt -1.469463 2.022542
vt -1.322517 1.820288
vt 1.469463 2.022542
vt 1.322517 1.820288
vt -1.134976 2.227516
vt -1.021479 2.004765
vt 1.134976 2.227516
vt 1.021479 2.004765
vt -0.7725424 2.377641
vt -0.6952882 2.139877
vt 0.7725424 2.377641
vt 0.6952882 2.139877
vt -0.3910862 2.469221
vt -0.3519776 2.222299
vt 0.3910862 2.469221
vt 0.3519776 2.222299
vt 1.092785E-07 2.5
vt 9.835063E-08 2.25
vt 2.469221 -0.3910859
vt 2.222299 -0.3519773
vt -2.469221 -0.3910859
vt -2.222299 -0.3519773
vt 2.377641 -0.7725424
vt 2.139877 -0.6952882
vt -2.377641 -0.7725424
vt -2.139877 -0.6952882
vt 2.227516 -1.134976
vt 2.004765 -1.021479
vt -2.227516 -1.134976
vt -2.004765 -1.021479
vt 2.022543 -1.469463
vt 1.820288 -1.322517
vt -2.022543 -1.469463
vt -1.820288 -1.322517
vt 1.767767 -1.767767
vt 1.59099 -1.59099
vt -1.767767 -1.767767
vt -1.59099 -1.59099
vt 1.469464 -2.022542
vt 1.322517 -1.820288
vt -1.469464 -2.022542
vt -1.322517 -1.820288
vt 1.134977 -2.227516
vt 1.021479 -2.004765
vt -1.134977 -2.227516
vt -1.021479 -2.004765
vt 0.7725427 -2.377641
vt 0.6952884 -2.139877
vt -0.7725427 -2.377641
vt -0.6952884 -2.139877
vt 0.3910863 -2.469221
vt 0.3519777 -2.222299
vt -0.3910863 -2.469221
vt -0.3519777 -2.222299
vt -2.98122E-08 -2.5
vt -2.683098E-08 -2.25

vn -0.9876884 0 0.1564343
vn -1 0 -2.615767E-08
vn 1 0 3.363128E-08
vn 0.9876884 0 -0.1564343
vn -0.9510566 0 0.3090169
vn 0.9510565 0 -0.3090169
vn -0.8910064 0 0.4539907
vn 0.8910064 0 -0.4539908
vn -0.8090169 0 0.5877854
vn 0.809017 0 -0.5877853
vn -0.7071068 0 0.7071067
vn 0.7071068 0 -0.7071067
vn -0.5877854 0 0.8090169
vn 0.5877853 0 -0.8090169
vn -0.4539905 0 0.8910065
vn 0.4539907 0 -0.8910065
vn -0.3090169 0 0.9510566
vn 0.3090169 0 -0.9510565
vn -0.1564343 0 0.9876884
vn 0.1564343 0 -0.9876884
vn 3.363128E-08 0 1
vn -2.989448E-08 0 -1
vn 0.1564343 0 0.9876884
vn -0.1564343 0 -0.9876884
vn 0.3090169 0 0.9510565
vn -0.309017 0 -0.9510565
vn 0.4539906 0 0.8910065
vn -0.4539907 0 -0.8910064
vn 0.5877852 0 0.8090171
vn -0.5877851 0 -0.8090171
vn 0.7071066 0 0.7071069
vn -0.7071066 0 -0.7071069
vn 0.8090171 0 0.5877852
vn -0.8090171 0 -0.5877851
vn 0.8910066 0 0.4539903
vn -0.8910066 0 -0.4539904
vn 0.9510565 0 0.3090171
vn -0.9510565 0 -0.3090172
vn 0.9876883 0 0.1564345
vn -0.9876883 0 -0.1564345
vn 0 -1 0
vn 0 1 0

usemtl ProBuilderDefault
f 3/3/1 4/4/2 2/2/2 1/1/1
f 7/7/3 8/8/4 6/6/4 5/5/3
f 10/3/5 3/4/1 1/2/1 9/1/5
f 8/7/4 12/8/6 11/6/6 6/5/4
f 14/3/7 10/4/5 9/2/5 13/1/7
f 12/7/6 16/8/8 15/6/8 11/5/6
f 18/3/9 14/4/7 13/2/7 17/1/9
f 16/7/8 20/8/10 19/6/10 15/5/8
f 22/3/11 18/4/9 17/2/9 21/1/11
f 20/7/10 24/8/12 23/6/12 19/5/10
f 26/3/13 22/4/11 21/2/11 25/1/13
f 24/7/12 28/8/14 27/6/14 23/5/12
f 30/3/15 26/4/13 25/2/13 29/1/15
f 28/7/14 32/8/16 31/6/16 27/5/14
f 34/3/17 30/4/15 29/2/15 33/1/17
f 32/7/16 36/8/18 35/6/18 31/5/16
f 38/3/19 34/4/17 33/2/17 37/1/19
f 36/7/18 40/8/20 39/6/20 35/5/18
f 42/3/21 38/4/19 37/2/19 41/1/21
f 40/7/20 44/8/22 43/6/22 39/5/20
f 46/3/23 42/4/21 41/2/21 45/1/23
f 44/7/22 48/8/24 47/6/24 43/5/22
f 50/3/25 46/4/23 45/2/23 49/1/25
f 48/7/24 52/8/26 51/6/26 47/5/24
f 54/3/27 50/4/25 49/2/25 53/1/27
f 52/7/26 56/8/28 55/6/28 51/5/26
f 58/3/29 54/4/27 53/2/27 57/1/29
f 56/7/28 60/8/30 59/6/30 55/5/28
f 62/3/31 58/4/29 57/2/29 61/1/31
f 60/7/30 64/8/32 63/6/32 59/5/30
f 66/3/33 62/4/31 61/2/31 65/1/33
f 64/7/32 68/8/34 67/6/34 63/5/32
f 70/3/35 66/4/33 65/2/33 69/1/35
f 68/7/34 72/8/36 71/6/36 67/5/34
f 74/3/37 70/4/35 69/2/35 73/1/37
f 72/7/36 76/8/38 75/6/38 71/5/36
f 78/3/39 74/4/37 73/2/37 77/1/39
f 76/7/38 80/8/40 79/6/40 75/5/38
f 82/3/3 78/4/39 77/2/39 81/1/3
f 80/7/40 84/8/2 83/6/2 79/5/40
f 86/3/4 82/4/3 81/2/3 85/1/4
f 84/7/2 88/8/1 87/6/1 83/5/2
f 90/3/6 86/4/4 85/2/4 89/1/6
f 88/7/1 92/8/5 91/6/5 87/5/1
f 94/3/8 90/4/6 89/2/6 93/1/8
f 92/7/5 96/8/7 95/6/7 91/5/5
f 98/3/10 94/4/8 93/2/8 97/1/10
f 96/7/7 100/8/9 99/6/9 95/5/7
f 102/3/12 98/4/10 97/2/10 101/1/12
f 100/7/9 104/8/11 103/6/11 99/5/9
f 106/3/14 102/4/12 101/2/12 105/1/14
f 104/7/11 108/8/13 107/6/13 103/5/11
f 110/3/16 106/4/14 105/2/14 109/1/16
f 108/7/13 112/8/15 111/6/15 107/5/13
f 114/3/18 110/4/16 109/2/16 113/1/18
f 112/7/15 116/8/17 115/6/17 111/5/15
f 118/3/20 114/4/18 113/2/18 117/1/20
f 116/7/17 120/8/19 119/6/19 115/5/17
f 122/3/22 118/4/20 117/2/20 121/1/22
f 120/7/19 124/8/21 123/6/21 119/5/19
f 126/3/24 122/4/22 121/2/22 125/1/24
f 124/7/21 128/8/23 127/6/23 123/5/21
f 130/3/26 126/4/24 125/2/24 129/1/26
f 128/7/23 132/8/25 131/6/25 127/5/23
f 134/3/28 130/4/26 129/2/26 133/1/28
f 132/7/25 136/8/27 135/6/27 131/5/25
f 138/3/30 134/4/28 133/2/28 137/1/30
f 136/7/27 140/8/29 139/6/29 135/5/27
f 142/3/32 138/4/30 137/2/30 141/1/32
f 140/7/29 144/8/31 143/6/31 139/5/29
f 146/3/34 142/4/32 141/2/32 145/1/34
f 144/7/31 148/8/33 147/6/33 143/5/31
f 150/3/36 146/4/34 145/2/34 149/1/36
f 148/7/33 152/8/35 151/6/35 147/5/33
f 154/3/38 150/4/36 149/2/36 153/1/38
f 152/7/35 156/8/37 155/6/37 151/5/35
f 158/3/40 154/4/38 153/2/38 157/1/40
f 156/7/37 160/8/39 159/6/39 155/5/37
f 4/3/2 158/4/40 157/2/40 2/1/2
f 160/7/39 7/8/3 5/6/3 159/5/39
f 5/11/41 6/12/41 1/10/41 2/9/41
f 8/15/42 7/16/42 4/14/42 3/13/42
f 6/12/41 11/18/41 9/17/41 1/10/41
f 12/20/42 8/15/42 3/13/42 10/19/42
f 11/18/41 15/22/41 13/21/41 9/17/41
f 16/24/42 12/20/42 10/19/42 14/23/42
f 15/22/41 19/26/41 17/25/41 13/21/41
f 20/28/42 16/24/42 14/23/42 18/27/42
f 19/26/41 23/30/41 21/29/41 17/25/41
f 24/32/42 20/28/42 18/27/42 22/31/42
f 23/30/41 27/34/41 25/33/41 21/29/41
f 28/36/42 24/32/42 22/31/42 26/35/42
f 27/34/41 31/38/41 29/37/41 25/33/41
f 32/40/42 28/36/42 26/35/42 30/39/42
f 31/38/41 35/42/41 33/41/41 29/37/41
f 36/44/42 32/40/42 30/39/42 34/43/42
f 35/42/41 39/46/41 37/45/41 33/41/41
f 40/48/42 36/44/42 34/43/42 38/47/42
f 39/46/41 43/50/41 41/49/41 37/45/41
f 44/50/42 40/48/42 38/47/42 42/49/42
f 43/50/41 47/48/41 45/47/41 41/49/41
f 48/46/42 44/50/42 42/49/42 46/45/42
f 47/48/41 51/44/41 49/43/41 45/47/41
f 52/42/42 48/46/42 46/45/42 50/41/42
f 51/44/41 55/40/41 53/39/41 49/43/41
f 56/38/42 52/42/42 50/41/42 54/37/42
f 55/40/41 59/36/41 57/35/41 53/39/41
f 60/34/42 56/38/42 54/37/42 58/33/42
f 59/36/41 63/32/41 61/31/41 57/35/41
f 64/30/42 60/34/42 58/33/42 62/29/42
f 63/32/41 67/28/41 65/27/41 61/31/41
f 68/26/42 64/30/42 62/29/42 66/25/42
f 67/28/41 71/24/41 69/23/41 65/27/41
f 72/22/42 68/26/42 66/25/42 70/21/42
f 71/24/41 75/20/41 73/19/41 69/23/41
f 76/18/42 72/22/42 70/21/42 74/17/42
f 75/20/41 79/15/41 77/13/41 73/19/41
f 80/12/42 76/18/42 74/17/42 78/10/42
f 79/15/41 83/16/41 81/14/41 77/13/41
f 84/11/42 80/12/42 78/10/42 82/9/42
f 83/16/41 87/52/41 85/51/41 81/14/41
f 88/54/42 84/11/42 82/9/42 86/53/42
f 87/52/41 91/56/41 89/55/41 85/51/41
f 92/58/42 88/54/42 86/53/42 90/57/42
f 91/56/41 95/60/41 93/59/41 89/55/41
f 96/62/42 92/58/42 90/57/42 94/61/42
f 95/60/41 99/64/41 97/63/41 93/59/41
f 100/66/42 96/62/42 94/61/42 98/65/42
f 99/64/41 103/68/41 101/67/41 97/63/41
f 104/70/42 100/66/42 98/65/42 102/69/42
f 103/68/41 107/72/41 105/71/41 101/67/41
f 108/74/42 104/70/42 102/69/42 106/73/42
f 107/72/41 111/76/41 109/75/41 105/71/41
f 112/78/42 108/74/42 106/73/42 110/77/42
f 111/76/41 115/80/41 113/79/41 109/75/41
f 116/82/42 112/78/42 110/77/42 114/81/42
f 115/80/41 119/84/41 117/83/41 113/79/41
f 120/86/42 116/82/42 114/81/42 118/85/42
f 119/84/41 123/88/41 121/87/41 117/83/41
f 124/88/42 120/86/42 118/85/42 122/87/42
f 123/88/41 127/86/41 125/85/41 121/87/41
f 128/84/42 124/88/42 122/87/42 126/83/42
f 127/86/41 131/82/41 129/81/41 125/85/41
f 132/80/42 128/84/42 126/83/42 130/79/42
f 131/82/41 135/78/41 133/77/41 129/81/41
f 136/76/42 132/80/42 130/79/42 134/75/42
f 135/78/41 139/74/41 137/73/41 133/77/41
f 140/72/42 136/76/42 134/75/42 138/71/42
f 139/74/41 143/70/41 141/69/41 137/73/41
f 144/68/42 140/72/42 138/71/42 142/67/42
f 143/70/41 147/66/41 145/65/41 141/69/41
f 148/64/42 144/68/42 142/67/42 146/63/42
f 147/66/41 151/62/41 149/61/41 145/65/41
f 152/60/42 148/64/42 146/63/42 150/59/42
f 151/62/41 155/58/41 153/57/41 149/61/41
f 156/56/42 152/60/42 150/59/42 154/55/42
f 155/58/41 159/54/41 157/53/41 153/57/41
f 160/52/42 156/56/42 154/55/42 158/51/42
f 159/54/41 5/11/41 2/9/41 157/53/41
f 7/16/42 160/52/42 158/51/42 4/14/42

